<svg width="33" height="32" viewBox="0 0 33 32" fill="none" xmlns="http://www.w3.org/2000/svg">
<g clip-path="url(#clip0_202_56)">
<path d="M15.1862 0.568134L1.14624 14.5969C0.966806 14.7757 0.824434 14.9881 0.72729 15.2221C0.630145 15.456 0.580139 15.7068 0.580139 15.9601C0.580139 16.2134 0.630145 16.4643 0.72729 16.6982C0.824434 16.9321 0.966806 17.1446 1.14624 17.3234L15.1862 31.352C15.9411 32.1061 17.1602 32.1061 17.915 31.352L23.8019 25.47C24.4779 24.7945 24.4779 23.6994 23.8019 23.024C23.1259 22.3485 22.0299 22.3485 21.3539 23.024L16.8911 27.483C16.7032 27.6708 16.4181 27.6708 16.2302 27.483L5.01824 16.2803C4.83036 16.0925 4.83036 15.8076 5.01824 15.6199L16.2302 4.41701C16.4181 4.22938 16.7032 4.22938 16.8911 4.41701L21.3539 8.87613C22.0299 9.55163 23.1259 9.55163 23.8019 8.87613C24.4779 8.20063 24.4779 7.10563 23.8019 6.43013L17.9156 0.548884C17.1577 -0.189116 15.9381 -0.183116 15.1862 0.568134Z" fill="url(#paint0_linear_202_56)"/>
<path d="M15.1862 0.56815L1.14624 14.5969C0.966806 14.7757 0.824434 14.9882 0.72729 15.2221C0.630145 15.456 0.580139 15.7068 0.580139 15.9601C0.580139 16.2135 0.630145 16.4643 0.72729 16.6982C0.824434 16.9321 0.966806 17.1446 1.14624 17.3234L15.1862 31.352C15.9411 32.1061 17.1602 32.1061 17.915 31.352L23.8019 25.47C24.4779 24.7945 24.4779 23.6994 23.8019 23.024C23.1259 22.3485 22.0299 22.3485 21.3539 23.024L16.8911 27.483C16.7032 27.6708 16.4181 27.6708 16.2302 27.483L5.01824 16.2803C4.83036 16.0925 4.83036 15.8076 5.01824 15.6199L16.2302 4.41702C16.698 4.01377 17.4614 3.19702 18.5821 3.00577C19.4151 2.8639 20.3259 3.1764 21.3142 3.94327L17.9157 0.548775C17.1577 -0.1891 15.9382 -0.1831 15.1862 0.56815Z" fill="url(#paint1_linear_202_56)"/>
<path d="M25.1609 21.7192C25.8369 22.3947 26.9329 22.3947 27.6089 21.7192L31.9513 17.3805C32.1307 17.2017 32.2731 16.9892 32.3702 16.7553C32.4674 16.5213 32.5174 16.2705 32.5174 16.0172C32.5174 15.7639 32.4674 15.5131 32.3702 15.2792C32.2731 15.0452 32.1307 14.8328 31.9513 14.654L27.5711 10.2927C26.8935 9.6181 25.7971 9.6191 25.1208 10.295C24.4448 10.9705 24.4448 12.0655 25.1208 12.741L28.0791 15.697C28.267 15.8847 28.267 16.1696 28.0791 16.3574L25.1609 19.2732C24.4849 19.9487 24.4849 21.0439 25.1609 21.7192Z" fill="url(#paint2_linear_202_56)"/>
<path d="M16.6209 19.818C18.7145 19.818 20.4118 18.1222 20.4118 16.0302C20.4118 13.9383 18.7145 12.2425 16.6209 12.2425C14.5272 12.2425 12.83 13.9383 12.83 16.0302C12.83 18.1222 14.5272 19.818 16.6209 19.818Z" fill="url(#paint3_linear_202_56)"/>
</g>
<defs>
<linearGradient id="paint0_linear_202_56" x1="1474.18" y1="2.73828e-05" x2="2808.41" y2="814.79" gradientUnits="userSpaceOnUse">
<stop stop-color="#4285EB"/>
<stop offset="1" stop-color="#2EC7FF"/>
</linearGradient>
<linearGradient id="paint1_linear_202_56" x1="1653.14" y1="2.84663e-05" x2="994.164" y2="3405.81" gradientUnits="userSpaceOnUse">
<stop stop-color="#29CDFF"/>
<stop offset="0.3786" stop-color="#148EFF"/>
<stop offset="1" stop-color="#0A60FF"/>
</linearGradient>
<linearGradient id="paint2_linear_202_56" x1="575.424" y1="-151.589" x2="-282.021" y2="1189.36" gradientUnits="userSpaceOnUse">
<stop stop-color="#FA816E"/>
<stop offset="0.41473" stop-color="#F74A5C"/>
<stop offset="1" stop-color="#F51D2C"/>
</linearGradient>
<linearGradient id="paint3_linear_202_56" x1="529.36" y1="-258.135" x2="244.062" y2="883.104" gradientUnits="userSpaceOnUse">
<stop stop-color="#FA8E7D"/>
<stop offset="0.51264" stop-color="#F74A5C"/>
<stop offset="1" stop-color="#F51D2C"/>
</linearGradient>
<clipPath id="clip0_202_56">
<rect width="32" height="32" fill="white" transform="translate(0.580017)"/>
</clipPath>
</defs>
</svg>
