<svg width="33" height="32" viewBox="0 0 33 32" fill="none" xmlns="http://www.w3.org/2000/svg">
<path d="M6.28201 27.201L4.03601 2H28.724L26.475 27.197L16.365 30L6.28201 27.201Z" fill="#1572B6"/>
<path d="M16.38 27.858L24.55 25.593L26.472 4.06097H16.38V27.858Z" fill="#33A9DC"/>
<path d="M16.38 13.191H20.47L20.752 10.026H16.38V6.935H24.13L24.056 7.764L23.297 16.282H16.38V13.191Z" fill="white"/>
<path d="M16.399 21.218L16.385 21.222L12.943 20.292L12.723 17.827H9.62L10.053 22.68L16.384 24.438L16.399 24.434V21.218Z" fill="#EBEBEB"/>
<path d="M20.207 16.151L19.835 20.29L16.388 21.22V24.436L22.724 22.68L22.771 22.158L23.308 16.151H20.207Z" fill="white"/>
<path d="M16.391 6.935V10.026H8.92501L8.86301 9.331L8.72201 7.764L8.64801 6.935H16.391ZM16.38 13.191V16.282H12.981L12.919 15.587L12.779 14.02L12.705 13.191H16.38Z" fill="#EBEBEB"/>
</svg>
