<svg width="32" height="32" viewBox="0 0 32 32" fill="none" xmlns="http://www.w3.org/2000/svg">
<path d="M5.33333 26.6667C4.59999 26.6667 3.97199 26.4053 3.44933 25.8827C2.92666 25.36 2.66577 24.7325 2.66666 24V8.00001C2.66666 7.26668 2.92799 6.63868 3.45066 6.11601C3.97333 5.59335 4.60088 5.33246 5.33333 5.33335H26.6667C27.4 5.33335 28.028 5.59468 28.5507 6.11735C29.0733 6.64001 29.3342 7.26757 29.3333 8.00001V16.0333H26.6667V8.00001H5.33333V24H18.7V26.6667H5.33333ZM26 28L24.5333 24.8L21.3333 23.3333L24.5333 21.8667L26 18.6667L27.4667 21.8667L30.6667 23.3333L27.4667 24.8L26 28ZM16 21.3333L17.6667 17.6667L21.3333 16L17.6667 14.3333L16 10.6667L14.3333 14.3333L10.6667 16L14.3333 17.6667L16 21.3333Z" fill="black"/>
</svg>
