<svg width="33" height="32" viewBox="0 0 33 32" fill="none" xmlns="http://www.w3.org/2000/svg">
<g clip-path="url(#clip0_201_38)">
<path d="M0.380005 0H32.38V32H0.380005V0Z" fill="#F7DF1E"/>
<path d="M8.79401 26.7415L11.2428 25.2595C11.7153 26.0971 12.145 26.8059 13.1759 26.8059C14.164 26.8059 14.7871 26.4194 14.7871 24.9159V14.6911H17.7943V24.9584C17.7943 28.073 15.9685 29.4907 13.3048 29.4907C10.8991 29.4907 9.50276 28.2449 8.79388 26.7412M19.4276 26.4192L21.8761 25.0016C22.5208 26.0542 23.3585 26.8275 24.8405 26.8275C26.0866 26.8275 26.8811 26.2045 26.8811 25.3452C26.8811 24.3142 26.0649 23.949 24.6901 23.3477L23.9385 23.0252C21.7689 22.1019 20.3298 20.9419 20.3298 18.4931C20.3298 16.2376 22.0481 14.5191 24.7333 14.5191C26.645 14.5191 28.0198 15.1851 29.0078 16.925L26.6663 18.4287C26.1506 17.5051 25.5924 17.14 24.7331 17.14C23.8524 17.14 23.2939 17.6985 23.2939 18.4287C23.2939 19.3309 23.8524 19.6962 25.1411 20.2547L25.8929 20.5769C28.4491 21.6725 29.8883 22.7894 29.8883 25.3024C29.8883 28.0091 27.7618 29.4911 24.9049 29.4911C22.1125 29.4911 20.3081 28.1594 19.4275 26.4194" fill="black"/>
</g>
<defs>
<clipPath id="clip0_201_38">
<rect width="32" height="32" fill="white" transform="translate(0.380005)"/>
</clipPath>
</defs>
</svg>
