<svg width="29" height="32" viewBox="0 0 29 32" fill="none" xmlns="http://www.w3.org/2000/svg">
<g clip-path="url(#clip0_202_54)">
<path d="M14.405 31.9407C13.9649 31.9407 13.5541 31.8233 13.1726 31.6179L9.26984 29.2997C8.68298 28.9769 8.97641 28.8596 9.15247 28.8009C9.94472 28.5368 10.0914 28.4781 10.913 28.0085C11.0012 27.9498 11.1185 27.9792 11.2064 28.0379L14.1996 29.8279C14.317 29.8866 14.4637 29.8866 14.5517 29.8279L26.26 23.0495C26.3773 22.9908 26.436 22.8735 26.436 22.7268V9.19918C26.436 9.05246 26.3773 8.93509 26.26 8.87641L14.5517 2.12729C14.4343 2.0686 14.2876 2.0686 14.1996 2.12729L2.49137 8.87652C2.374 8.9352 2.31532 9.08192 2.31532 9.19929V22.7268C2.31532 22.8441 2.374 22.9908 2.49137 23.0495L5.68993 24.8981C7.42125 25.7784 8.50682 24.7514 8.50682 23.7244V10.3729C8.50682 10.1968 8.65364 10.0208 8.85904 10.0208H10.3556C10.5317 10.0208 10.7077 10.1675 10.7077 10.3729V23.7243C10.7077 26.0425 9.44589 27.3922 7.24509 27.3922C6.57021 27.3922 6.04204 27.3922 4.54557 26.6587L1.46438 24.8981C0.701476 24.4579 0.231995 23.6363 0.231995 22.756V9.22863C0.231995 8.34835 0.701476 7.52676 1.46438 7.08651L13.1726 0.308158C13.9062 -0.102638 14.9038 -0.102638 15.6374 0.308158L27.3456 7.08651C28.1085 7.52665 28.578 8.34824 28.578 9.22863V22.7561C28.578 23.6364 28.1085 24.458 27.3456 24.8981L15.6374 31.6767C15.2559 31.8527 14.8158 31.9408 14.405 31.9408V31.9407ZM18.0143 22.6386C12.8791 22.6386 11.8227 20.2912 11.8227 18.2958C11.8227 18.1198 11.9695 17.9437 12.1749 17.9437H13.7007C13.8767 17.9437 14.0236 18.0611 14.0236 18.2371C14.2583 19.7923 14.9332 20.5553 18.0436 20.5553C20.5085 20.5553 21.5649 19.9978 21.5649 18.6774C21.5649 17.9144 21.2715 17.3568 17.4274 16.9753C14.229 16.6525 12.2335 15.9483 12.2335 13.3955C12.2335 11.0185 14.2288 9.61008 17.5741 9.61008C21.3301 9.61008 23.1788 10.9012 23.4135 13.7182C23.4135 13.8062 23.3842 13.8942 23.3255 13.9822C23.2668 14.0409 23.1788 14.0996 23.0907 14.0996H21.5649C21.4181 14.0996 21.2715 13.9822 21.242 13.8355C20.8899 12.2217 19.9803 11.6935 17.5741 11.6935C14.8746 11.6935 14.5517 12.6325 14.5517 13.3367C14.5517 14.1877 14.9332 14.4517 18.5718 14.9212C22.1811 15.3907 23.883 16.0657 23.883 18.5892C23.8536 21.1715 21.741 22.6386 18.0143 22.6386Z" fill="#539E43"/>
</g>
<defs>
<clipPath id="clip0_202_54">
<rect width="28.35" height="32" fill="white" transform="translate(0.230011)"/>
</clipPath>
</defs>
</svg>
