<svg width="32" height="32" viewBox="0 0 32 32" fill="none" xmlns="http://www.w3.org/2000/svg">
<g clip-path="url(#clip0_202_62)">
<path d="M31.4949 19.162C31.3089 18.5984 30.8215 18.206 30.1912 18.1118C29.894 18.0674 29.5536 18.0863 29.1508 18.1693C28.4488 18.3142 27.9279 18.3693 27.5478 18.38C28.9826 15.9576 30.1492 13.1952 30.8209 10.5948C31.9069 6.39007 31.3266 4.47456 30.6484 3.60813C28.8536 1.3148 26.2351 0.0827991 23.076 0.0451021C21.3908 0.0244961 19.9114 0.357223 19.1397 0.596496C18.4211 0.469708 17.6485 0.39892 16.8379 0.385829C15.3182 0.361587 13.9755 0.69286 12.8283 1.37371C12.1931 1.15892 11.1737 0.856132 9.99652 0.66292C7.22779 0.208375 4.99627 0.562557 3.36403 1.71565C1.38755 3.11177 0.471304 5.53747 0.640759 8.92535C0.694577 10.001 1.29627 13.2737 2.24367 16.3775C2.78815 18.1615 3.36876 19.6429 3.96937 20.7811C4.82112 22.395 5.73252 23.3455 6.75567 23.6868C7.32912 23.8778 8.37106 24.0116 9.46694 23.0989C9.60585 23.2672 9.79118 23.4343 10.0371 23.5896C10.3495 23.7866 10.7314 23.9475 11.1129 24.0429C12.4875 24.3866 13.7752 24.3006 14.8737 23.8189C14.8805 24.0143 14.8857 24.201 14.8901 24.3622C14.8974 24.6236 14.9046 24.88 14.9142 25.1198C14.9793 26.7409 15.0896 28.0013 15.4164 28.8833C15.4343 28.9318 15.4585 29.0057 15.4839 29.0841C15.6469 29.5833 15.9195 30.4189 16.6131 31.0733C17.3313 31.7513 18.2 31.9592 18.9957 31.9592C19.3947 31.9592 19.7754 31.9068 20.1094 31.8353C21.2997 31.5801 22.6515 31.1915 23.6295 29.799C24.5541 28.4827 25.0035 26.5 25.0849 23.376C25.0954 23.2876 25.1051 23.2033 25.1145 23.1229L25.1339 22.9578L25.3517 22.977L25.4078 22.9807C26.6202 23.036 28.1026 22.7789 29.013 22.356C29.7324 22.0222 32.0377 20.8051 31.4949 19.162Z" fill="black"/>
<path d="M29.4219 19.4815C25.8171 20.2251 25.5692 19.0046 25.5692 19.0046C29.3753 13.357 30.9664 6.18814 29.5934 4.43359C25.8475 -0.352467 19.3633 1.91105 19.255 1.96972L19.2202 1.97602C18.508 1.82814 17.711 1.74014 16.8151 1.72547C15.1841 1.69881 13.9468 2.15311 13.0079 2.86511C13.0079 2.86511 1.44059 -1.90022 1.97865 8.85832C2.09308 11.147 5.25914 26.1763 9.03538 21.6367C10.4156 19.9767 11.7493 18.5732 11.7493 18.5732C12.4116 19.0132 13.2046 19.2377 14.0359 19.1571L14.1005 19.1023C14.0804 19.3084 14.0896 19.51 14.1263 19.7486C13.1534 20.8355 13.4394 21.0263 11.4947 21.4267C9.52678 21.8323 10.6828 22.5542 11.4376 22.7431C12.3526 22.9718 14.4694 23.2959 15.8997 21.2936L15.8428 21.5221C16.2239 21.8274 16.4915 23.5079 16.4467 25.0314C16.4018 26.5548 16.3719 27.6007 16.6721 28.4177C16.9726 29.2347 17.2719 31.0729 19.8285 30.5251C21.9646 30.0673 23.0716 28.881 23.2257 26.9021C23.3349 25.4953 23.5823 25.7033 23.5978 24.4455L23.7962 23.8501C24.025 21.943 23.8326 21.3278 25.1486 21.614L25.4686 21.6421C26.4371 21.6861 27.705 21.4862 28.4491 21.1404C30.0513 20.3969 31.0016 19.1553 29.4217 19.4815H29.4219Z" fill="#336791"/>
<path d="M13.685 9.88181C13.3601 9.8366 13.066 9.87842 12.9171 9.99114C12.8335 10.0545 12.8075 10.128 12.8005 10.1785C12.7818 10.3125 12.8757 10.4606 12.9334 10.537C13.0965 10.7532 13.3348 10.9018 13.5707 10.9345C13.6049 10.9394 13.6389 10.9416 13.6728 10.9416C14.0661 10.9416 14.4238 10.6353 14.4553 10.4092C14.4947 10.1261 14.0837 9.93721 13.685 9.88181ZM24.4467 9.89078C24.4157 9.66884 24.0208 9.60557 23.646 9.65769C23.2717 9.70981 22.9088 9.87878 22.9391 10.1012C22.9633 10.2742 23.2757 10.5694 23.6454 10.5694C23.6766 10.5694 23.7081 10.5674 23.7399 10.5629C23.9867 10.5287 24.1678 10.372 24.2538 10.2817C24.3848 10.144 24.4606 9.99054 24.4467 9.89078Z" fill="white"/>
<path d="M30.6215 19.397C30.484 18.9814 30.0416 18.8477 29.3066 18.9994C27.1241 19.4498 26.3426 19.1378 26.086 18.9489C27.7823 16.3646 29.1778 13.2407 29.9307 10.3262C30.2873 8.9456 30.4843 7.66342 30.5004 6.61832C30.5182 5.47129 30.3228 4.62838 29.9199 4.11348C28.2954 2.03772 25.9112 0.924263 23.0251 0.893718C21.041 0.871415 19.3646 1.37917 19.0397 1.52196C18.3553 1.35178 17.6092 1.24729 16.797 1.23396C15.3075 1.20984 14.02 1.56645 12.9541 2.29335C12.491 2.12099 11.2944 1.7102 9.83105 1.47444C7.30111 1.06717 5.29068 1.37578 3.85602 2.39214C2.14414 3.60499 1.35383 5.77299 1.50693 8.83578C1.55844 9.8662 2.14559 13.0361 3.07214 16.0719C4.29177 20.0675 5.61759 22.3295 7.0125 22.7948C7.17577 22.8492 7.36402 22.8873 7.57165 22.8873C8.0805 22.8873 8.70438 22.658 9.35347 21.8776C10.1452 20.9278 10.9641 20.0012 11.8093 19.0987C12.3577 19.393 12.9601 19.5574 13.5763 19.5738C13.5775 19.59 13.579 19.6061 13.5805 19.6221C13.4744 19.7486 13.3706 19.8769 13.269 20.0069C12.8421 20.5489 12.7532 20.6617 11.379 20.9446C10.9881 21.0254 9.94996 21.2393 9.93468 21.9671C9.9182 22.7622 11.162 23.0961 11.3037 23.1315C11.7975 23.2552 12.2732 23.3161 12.7269 23.3161C13.8303 23.3161 14.8014 22.9535 15.5774 22.2518C15.5535 25.0864 15.6717 27.8797 16.012 28.7307C16.2908 29.4274 16.9718 31.1301 19.1228 31.13C19.4384 31.13 19.7858 31.0932 20.168 31.0113C22.413 30.5301 23.3879 29.5378 23.765 27.3503C23.9668 26.1812 24.3131 23.3896 24.476 21.8921C24.8198 21.9994 25.2623 22.0485 25.7407 22.0484C26.7386 22.0484 27.89 21.8364 28.612 21.5012C29.4232 21.1245 30.8869 20.2001 30.6215 19.397ZM25.2753 9.2782C25.2679 9.72026 25.207 10.1216 25.1426 10.5405C25.0731 10.9911 25.0014 11.4569 24.9833 12.0223C24.9655 12.5726 25.0342 13.1447 25.1006 13.6981C25.2349 14.8157 25.3727 15.9662 24.8393 17.1015C24.7507 16.9445 24.6717 16.7822 24.6029 16.6155C24.5366 16.4548 24.3926 16.1966 24.1932 15.8393C23.4176 14.4483 21.6012 11.1908 22.531 9.8616C22.808 9.46596 23.5109 9.05917 25.2753 9.2782ZM23.1366 1.78887C25.7226 1.84596 27.7681 2.81335 29.2164 4.66402C30.3272 6.08354 29.104 12.5426 25.563 18.1148C25.5274 18.0695 25.4916 18.0244 25.4557 17.9794L25.4108 17.9234C26.3258 16.4123 26.1469 14.9171 25.9877 13.5915C25.9222 13.0475 25.8604 12.5337 25.8761 12.0511C25.8924 11.5395 25.96 11.1007 26.0255 10.6765C26.1058 10.1537 26.1877 9.61275 26.1651 8.97505C26.182 8.90814 26.1887 8.82911 26.1799 8.73529C26.1223 8.12378 25.4241 6.2936 24.0011 4.63711C23.2227 3.73105 22.0875 2.71711 20.5376 2.03323C21.2043 1.89505 22.1159 1.7662 23.1366 1.78887ZM8.66656 21.3064C7.95141 22.1663 7.45759 22.0015 7.29517 21.9474C6.23699 21.5944 5.00911 19.3578 3.92656 15.8112C2.98983 12.7423 2.44244 9.65638 2.39905 8.79105C2.26232 6.05432 2.92571 4.14705 4.37093 3.12208C6.72293 1.4542 10.5898 2.45251 12.1437 2.95881C12.1214 2.98087 12.0981 3.00148 12.076 3.0239C9.5262 5.59893 9.58668 9.99845 9.59299 10.2674C9.59274 10.3712 9.60147 10.5181 9.61335 10.7201C9.65723 11.4601 9.73893 12.8374 9.52074 14.397C9.31808 15.8463 9.76487 17.2649 10.7463 18.289C10.847 18.3939 10.9529 18.4937 11.0635 18.5881C10.6267 19.056 9.67723 20.0907 8.66656 21.3064ZM11.3913 17.6709C10.6003 16.8455 10.241 15.6974 10.4055 14.5206C10.6358 12.8731 10.5508 11.4382 10.5051 10.6673C10.4987 10.5594 10.493 10.4649 10.4897 10.3903C10.8622 10.06 12.5884 9.13517 13.8194 9.41723C14.3811 9.54584 14.7234 9.92838 14.8657 10.5863C15.6022 13.9927 14.9632 15.4125 14.4497 16.5535C14.3439 16.7885 14.2439 17.0107 14.1586 17.2405L14.0924 17.4182C13.9249 17.8674 13.769 18.2851 13.6724 18.6817C12.8314 18.6793 12.0133 18.32 11.3913 17.6708V17.6709ZM11.5204 22.2649C11.2748 22.2035 11.054 22.097 10.9244 22.0086C11.0326 21.9577 11.2252 21.8884 11.5593 21.8195C13.1759 21.4868 13.4256 21.2519 13.9708 20.5597C14.0958 20.4009 14.2375 20.221 14.4337 20.0018L14.434 20.0016C14.7262 19.6743 14.8599 19.7298 15.1023 19.8304C15.2988 19.9117 15.4902 20.158 15.5678 20.429C15.6045 20.557 15.6457 20.7999 15.5108 20.989C14.3719 22.5837 12.7123 22.5632 11.5204 22.2649ZM19.9809 30.1378C18.0032 30.5616 17.3029 29.5525 16.8415 28.3989C16.5437 27.6542 16.3972 24.2959 16.5011 20.5872C16.5024 20.5378 16.4954 20.4902 16.4818 20.4454C16.4697 20.3568 16.4512 20.2692 16.4266 20.1833C16.2721 19.6437 15.8958 19.1923 15.4443 19.0051C15.2649 18.9308 14.9357 18.7944 14.54 18.8957C14.6244 18.548 14.7707 18.1554 14.9294 17.7303L14.9959 17.5515C15.0708 17.35 15.1649 17.1411 15.2643 16.92C15.8016 15.7263 16.5375 14.0913 15.7388 10.3976C15.4397 9.01408 14.4406 8.33845 12.9262 8.49541C12.0183 8.58935 11.1877 8.95566 10.7733 9.16572C10.6843 9.21081 10.6028 9.25444 10.5267 9.29687C10.6423 7.90293 11.0792 5.29784 12.7133 3.6496C13.7423 2.61202 15.1126 2.09954 16.7822 2.12717C20.0719 2.18099 22.1815 3.86923 23.372 5.27614C24.398 6.48838 24.9535 7.7096 25.1752 8.36826C23.5079 8.19869 22.374 8.52778 21.7992 9.3496C20.5486 11.1372 22.4833 14.6068 23.4131 16.2743C23.5837 16.5799 23.7308 16.844 23.7771 16.9563C24.0799 17.6901 24.4719 18.18 24.7581 18.5376C24.8458 18.6472 24.9309 18.7535 24.9957 18.8463C24.4907 18.9919 23.5837 19.3283 23.6663 21.0096C23.5997 21.8532 23.1256 25.8031 22.8847 27.1986C22.5668 29.0422 21.8884 29.7289 19.9809 30.138V30.1378ZM28.2359 20.6911C27.7195 20.9307 26.8554 21.1104 26.0346 21.1491C25.1279 21.1915 24.6663 21.0475 24.5577 20.9589C24.5068 19.9112 24.8967 19.8017 25.3095 19.6858C25.3743 19.6677 25.4376 19.6498 25.4987 19.6285C25.5366 19.6594 25.5782 19.6901 25.6238 19.7201C26.3525 20.2011 27.6523 20.253 29.4873 19.8742L29.5074 19.8702C29.2599 20.1016 28.8364 20.4121 28.2359 20.6911Z" fill="white"/>
</g>
<defs>
<clipPath id="clip0_202_62">
<rect width="31.04" height="32" fill="white" transform="translate(0.580017)"/>
</clipPath>
</defs>
</svg>
