<svg width="33" height="32" viewBox="0 0 33 32" fill="none" xmlns="http://www.w3.org/2000/svg">
<path d="M16.38 18.474C17.7607 18.474 18.88 17.3547 18.88 15.974C18.88 14.5933 17.7607 13.474 16.38 13.474C14.9993 13.474 13.88 14.5933 13.88 15.974C13.88 17.3547 14.9993 18.474 16.38 18.474Z" fill="#00D8FF"/>
<path d="M16.38 21.706C13.3751 21.7787 10.3778 21.3737 7.5 20.506C6.17063 20.0846 4.93074 19.4208 3.843 18.548C3.42793 18.2499 3.08228 17.8655 2.82975 17.4212C2.57722 16.9769 2.42379 16.4832 2.38 15.974C2.38 14.321 4.196 12.701 7.238 11.641C10.1927 10.7018 13.2799 10.2466 16.38 10.293C19.4387 10.2503 22.4845 10.6973 25.402 11.617C26.6823 12.0252 27.8801 12.6569 28.94 13.483C29.348 13.7673 29.6885 14.1377 29.9373 14.5682C30.1862 14.9987 30.3373 15.4786 30.38 15.974C30.38 17.692 28.35 19.433 25.08 20.515C22.2579 21.3544 19.3238 21.7561 16.38 21.706ZM16.38 11.489C13.4141 11.4494 10.4608 11.8821 7.631 12.771C4.831 13.748 3.576 15.084 3.576 15.971C3.576 16.899 4.925 18.358 7.887 19.371C10.6401 20.1969 13.5066 20.5813 16.38 20.51C19.1964 20.5604 22.0039 20.1793 24.705 19.38C27.78 18.361 29.18 16.9 29.18 15.974C29.1296 15.6562 29.0137 15.3524 28.8399 15.0816C28.6661 14.8109 28.438 14.5791 28.17 14.401C27.2218 13.6682 26.1517 13.1083 25.009 12.747C22.218 11.8708 19.305 11.4461 16.38 11.489Z" fill="#00D8FF"/>
<path d="M10.7 28.443C10.2335 28.4537 9.77252 28.3405 9.36401 28.115C7.93201 27.289 7.43601 24.907 8.03701 21.742C8.69966 18.7131 9.84782 15.8113 11.437 13.149C12.9277 10.4781 14.8362 8.06289 17.09 5.99497C18.0832 5.08968 19.2289 4.36752 20.474 3.86197C20.9244 3.65091 21.4156 3.5415 21.913 3.5415C22.4104 3.5415 22.9017 3.65091 23.352 3.86197C24.841 4.71997 25.334 7.34797 24.639 10.721C23.9559 13.5855 22.8376 16.3284 21.323 18.854C19.8847 21.4933 18.0364 23.8875 15.847 25.947C14.8178 26.8878 13.6233 27.6299 12.324 28.136C11.8038 28.329 11.2548 28.4328 10.7 28.443ZM12.473 13.743C10.9571 16.2923 9.85667 19.0667 9.21301 21.962C8.66001 24.877 9.19101 26.63 9.96301 27.076C10.763 27.539 12.705 27.1 15.063 25.04C17.153 23.0669 18.9172 20.7752 20.29 18.25C21.7409 15.8355 22.8137 13.2131 23.471 10.474C24.125 7.29897 23.56 5.35497 22.758 4.89297C22.4574 4.7778 22.1362 4.72624 21.8147 4.74156C21.4931 4.75688 21.1783 4.83874 20.89 4.98197C19.7817 5.43932 18.7627 6.0886 17.88 6.89997C15.7267 8.88076 13.9037 11.1929 12.48 13.749L12.473 13.743Z" fill="#00D8FF"/>
<path d="M22.057 28.456C20.702 28.456 18.981 27.636 17.189 26.095C14.8957 24.0083 12.955 21.5644 11.442 18.858C9.87275 16.2323 8.73369 13.3725 8.06802 10.387C7.77933 9.07347 7.72583 7.71917 7.91002 6.38698C7.9526 5.89279 8.10308 5.41395 8.35085 4.98424C8.59862 4.55453 8.93765 4.18441 9.34402 3.89998C10.831 3.03898 13.354 3.92398 15.929 6.20998C18.0696 8.23216 19.8874 10.5707 21.319 13.144C22.8873 15.7083 24.0383 18.5055 24.729 21.431C25.0301 22.7927 25.0766 24.1984 24.866 25.577C24.8159 26.0854 24.6565 26.5769 24.3986 27.018C24.1407 27.459 23.7905 27.839 23.372 28.132C22.9702 28.3547 22.5163 28.4665 22.057 28.456ZM12.477 18.256C13.9284 20.8424 15.7823 23.1813 17.969 25.185C20.218 27.12 22.002 27.536 22.769 27.085C23.569 26.62 24.159 24.722 23.551 21.651C22.8849 18.8579 21.7809 16.1879 20.28 13.74C18.9138 11.2771 17.1788 9.03784 15.135 7.09998C12.711 4.94798 10.745 4.46698 9.94402 4.93098C9.69436 5.13386 9.48949 5.3863 9.34232 5.67237C9.19516 5.95843 9.10891 6.2719 9.08902 6.59298C8.93002 7.78107 8.98182 8.98788 9.24202 10.158C9.88232 13.0131 10.9748 15.7476 12.478 18.258L12.477 18.256Z" fill="#00D8FF"/>
</svg>
