<svg width="54" height="32" viewBox="0 0 54 32" fill="none" xmlns="http://www.w3.org/2000/svg">
<g clip-path="url(#clip0_201_29)">
<path d="M26.78 0C19.6874 0 15.2544 3.54639 13.4813 10.639C16.141 7.09257 19.244 5.7627 22.7904 6.64935C24.8137 7.15512 26.2599 8.62317 27.8607 10.2479C30.4685 12.895 33.4865 15.9584 40.0787 15.9584C47.1713 15.9584 51.6043 12.4121 53.3774 5.31948C50.7177 8.86587 47.6147 10.1957 44.0683 9.30909C42.045 8.80332 40.5988 7.33527 38.998 5.71055C36.3902 3.06348 33.3722 0 26.78 0ZM13.4813 15.9584C6.38872 15.9584 1.95568 19.5048 0.182587 26.5974C2.84233 23.051 5.94529 21.7211 9.49168 22.6078C11.515 23.1136 12.9612 24.5816 14.562 26.2063C17.1698 28.8534 20.1878 31.9169 26.78 31.9169C33.8726 31.9169 38.3056 28.3705 40.0787 21.2779C37.419 24.8243 34.316 26.1542 30.7696 25.2675C28.7463 24.7618 27.3001 23.2937 25.6993 21.669C23.0915 19.0219 20.0735 15.9584 13.4813 15.9584Z" fill="url(#paint0_linear_201_29)"/>
</g>
<defs>
<linearGradient id="paint0_linear_201_29" x1="-147.593" y1="1021.34" x2="4446.65" y2="3670.3" gradientUnits="userSpaceOnUse">
<stop stop-color="#2298BD"/>
<stop offset="1" stop-color="#0ED7B5"/>
</linearGradient>
<clipPath id="clip0_201_29">
<rect width="53.2" height="32" fill="white" transform="translate(0.179993)"/>
</clipPath>
</defs>
</svg>
