<svg width="33" height="32" viewBox="0 0 33 32" fill="none" xmlns="http://www.w3.org/2000/svg">
<g clip-path="url(#clip0_202_51)">
<path d="M2.73001 0H29.73C31.1108 0 32.23 1.11925 32.23 2.5V29.5C32.23 30.8807 31.1108 32 29.73 32H2.73001C1.34926 32 0.230011 30.8807 0.230011 29.5V2.5C0.230011 1.11925 1.34926 0 2.73001 0Z" fill="#3178C6"/>
<path d="M19.0448 25.0594V28.5119C19.6063 28.7996 20.2704 29.0154 21.037 29.1593C21.8036 29.3031 22.6116 29.375 23.4611 29.375C24.2889 29.375 25.0754 29.2959 25.8204 29.1376C26.5654 28.9794 27.2188 28.7186 27.7801 28.3555C28.3416 27.9922 28.7861 27.5175 29.1138 26.9312C29.4413 26.3451 29.605 25.6205 29.605 24.7574C29.605 24.1316 29.5114 23.5831 29.3243 23.112C29.1392 22.6441 28.864 22.217 28.5144 21.8551C28.1618 21.4883 27.7388 21.1592 27.2458 20.8679C26.7526 20.5766 26.1965 20.3015 25.5774 20.0426C25.1239 19.8555 24.7173 19.674 24.3573 19.4977C23.9974 19.3215 23.6914 19.1418 23.4395 18.9583C23.1875 18.7749 22.9931 18.5806 22.8564 18.3756C22.7196 18.1706 22.6513 17.9388 22.6513 17.6798C22.6513 17.4424 22.7124 17.2285 22.8348 17.0379C22.9571 16.8472 23.13 16.6836 23.3531 16.547C23.5763 16.4103 23.8498 16.3042 24.1738 16.2286C24.4976 16.1531 24.8576 16.1154 25.2535 16.1154C25.5415 16.1154 25.8456 16.137 26.1659 16.1801C26.4863 16.2232 26.8084 16.2897 27.1324 16.3797C27.4553 16.4693 27.7712 16.5829 28.0771 16.7196C28.3738 16.8511 28.6576 17.01 28.9248 17.1943V13.9684C28.3993 13.767 27.8251 13.6178 27.2025 13.5206C26.5799 13.4235 25.8654 13.375 25.0591 13.375C24.2385 13.375 23.4611 13.4631 22.7269 13.6394C21.9926 13.8155 21.3465 14.0906 20.7886 14.4646C20.2308 14.8388 19.7899 15.3152 19.4659 15.8942C19.142 16.4732 18.98 17.1655 18.98 17.9711C18.98 18.9996 19.2769 19.8771 19.8709 20.6036C20.4648 21.33 21.3663 21.945 22.5756 22.4485C23.0221 22.6303 23.4649 22.821 23.9038 23.0204C24.3141 23.2074 24.6686 23.4015 24.9674 23.6029C25.2661 23.8042 25.5019 24.0236 25.6746 24.261C25.8474 24.4984 25.9338 24.7681 25.9338 25.0702C25.9352 25.2877 25.8793 25.5017 25.7718 25.6906C25.6639 25.8811 25.5 26.0466 25.2805 26.1869C25.061 26.3271 24.7874 26.4367 24.4599 26.5159C24.1324 26.595 23.749 26.6346 23.3099 26.6346C22.5613 26.6346 21.8199 26.5034 21.0856 26.2407C20.3513 25.9782 19.671 25.5845 19.0448 25.0594ZM13.2903 16.4678H17.73V13.625H5.35501V16.4678H9.77314V29.125H13.2903V16.4678Z" fill="white"/>
</g>
<defs>
<clipPath id="clip0_202_51">
<rect width="32" height="32" fill="white" transform="translate(0.230011)"/>
</clipPath>
</defs>
</svg>
