<svg width="33" height="32" viewBox="0 0 33 32" fill="none" xmlns="http://www.w3.org/2000/svg">
<path d="M5.83333 28C5.09999 28 4.47199 27.7387 3.94933 27.216C3.42666 26.6934 3.16577 26.0658 3.16666 25.3334V10.6667C3.16666 9.93336 3.42799 9.30536 3.95066 8.78269C4.47333 8.26002 5.10088 7.99913 5.83333 8.00002H11.1667V5.33336C11.1667 4.60002 11.428 3.97202 11.9507 3.44936C12.4733 2.92669 13.1009 2.6658 13.8333 2.66669H19.1667C19.9 2.66669 20.528 2.92802 21.0507 3.45069C21.5733 3.97336 21.8342 4.60091 21.8333 5.33336V8.00002H27.1667C27.9 8.00002 28.528 8.26136 29.0507 8.78402C29.5733 9.30669 29.8342 9.93425 29.8333 10.6667V16.3667C29.4333 16.0778 29.0111 15.8276 28.5667 15.616C28.1222 15.4045 27.6555 15.2214 27.1667 15.0667V10.6667H5.83333V25.3334H15.2667C15.3333 25.8 15.4333 26.2556 15.5667 26.7C15.7 27.1445 15.8667 27.5778 16.0667 28H5.83333ZM13.8333 8.00002H19.1667V5.33336H13.8333V8.00002ZM24.5 30.6667C22.6555 30.6667 21.0831 30.0165 19.7827 28.716C18.4822 27.4156 17.8324 25.8436 17.8333 24C17.8333 22.1556 18.4835 20.5831 19.784 19.2827C21.0844 17.9822 22.6564 17.3325 24.5 17.3334C26.3444 17.3334 27.9169 17.9836 29.2173 19.284C30.5178 20.5845 31.1675 22.1565 31.1667 24C31.1667 25.8445 30.5164 27.4169 29.216 28.7174C27.9155 30.0178 26.3435 30.6676 24.5 30.6667ZM26.7 27.1334L27.6333 26.2L25.1667 23.7334V20H23.8333V24.2667L26.7 27.1334Z" fill="#261F22"/>
</svg>
