<svg width="25" height="33" viewBox="0 0 25 33" fill="none" xmlns="http://www.w3.org/2000/svg">
<path fill-rule="evenodd" clip-rule="evenodd" d="M21.7578 12.886V29.886H3.75781V3.88599H12.7578V9.38599C12.7578 11.318 14.3258 12.886 16.2578 12.886H21.7578ZM21.5158 9.88599L15.7578 4.12799V9.38599C15.7578 9.66199 15.9818 9.88599 16.2578 9.88599H21.5158ZM0.757812 2.88599C0.757812 2.35555 0.968526 1.84685 1.3436 1.47177C1.71867 1.0967 2.22738 0.885986 2.75781 0.885986L15.9298 0.885986C16.4602 0.8861 16.9688 1.09689 17.3438 1.47199L24.1718 8.29999C24.5469 8.67497 24.7577 9.1836 24.7578 9.71399V30.886C24.7578 31.4164 24.5471 31.9251 24.172 32.3002C23.797 32.6753 23.2882 32.886 22.7578 32.886H2.75781C2.22738 32.886 1.71867 32.6753 1.3436 32.3002C0.968526 31.9251 0.757813 31.4164 0.757812 30.886V2.88599Z" fill="#9E5E31"/>
<path fill-rule="evenodd" clip-rule="evenodd" d="M15.0078 19.5281L18.7578 23.8141V25.5281H6.75781V23.7281L9.00781 21.0281L11.2938 23.7721L15.0078 19.5281ZM12.7578 16.5281C12.7578 17.3237 12.4417 18.0868 11.8791 18.6494C11.3165 19.212 10.5535 19.5281 9.75781 19.5281C8.96216 19.5281 8.1991 19.212 7.63649 18.6494C7.07388 18.0868 6.75781 17.3237 6.75781 16.5281C6.75781 15.7324 7.07388 14.9694 7.63649 14.4068C8.1991 13.8441 8.96216 13.5281 9.75781 13.5281C10.5535 13.5281 11.3165 13.8441 11.8791 14.4068C12.4417 14.9694 12.7578 15.7324 12.7578 16.5281Z" fill="#9E5E31"/>

</svg>
