<svg width="25" height="33" viewBox="0 0 25 33" fill="none" xmlns="http://www.w3.org/2000/svg">
<path fill-rule="evenodd" clip-rule="evenodd" d="M21.1245 12.7607V29.7607H3.12451V3.76074H12.1245V9.26074C12.1245 11.1927 13.6925 12.7607 15.6245 12.7607H21.1245ZM20.8825 9.76074L15.1245 4.00274V9.26074C15.1245 9.53674 15.3485 9.76074 15.6245 9.76074H20.8825ZM0.124512 2.76074C0.124512 2.23031 0.335225 1.7216 0.710298 1.34653C1.08537 0.971456 1.59408 0.760742 2.12451 0.760742L15.2965 0.760742C15.8269 0.760855 16.3355 0.971643 16.7105 1.34674L23.5385 8.17474C23.9136 8.54973 24.1244 9.05835 24.1245 9.58874V30.7607C24.1245 31.2912 23.9138 31.7999 23.5387 32.175C23.1637 32.55 22.6549 32.7607 22.1245 32.7607H2.12451C1.59408 32.7607 1.08537 32.55 0.710298 32.175C0.335225 31.7999 0.124512 31.2912 0.124512 30.7607V2.76074Z" fill="#9E5E31"/>
<path d="M14.8679 16.3901C14.988 16.0727 15.2246 15.8131 15.5296 15.6641C15.8345 15.5151 16.1848 15.488 16.509 15.5883C16.8332 15.6886 17.1069 15.9088 17.2744 16.2039C17.442 16.4991 17.4906 16.847 17.4105 17.1768L17.3639 17.3261L15.4892 22.3261C15.0345 23.5395 13.3719 23.5928 12.8119 22.4861L12.7425 22.3261L12.1159 20.6555L11.4892 22.3261C11.0345 23.5395 9.37187 23.5928 8.81187 22.4861L8.74254 22.3261L6.86787 17.3261C6.74947 17.0079 6.75694 16.6565 6.88874 16.3436C7.02055 16.0307 7.26677 15.7798 7.57717 15.6422C7.88758 15.5046 8.23879 15.4906 8.55916 15.6031C8.87953 15.7156 9.14492 15.946 9.30121 16.2475L9.36387 16.3901L10.1159 18.3941L10.7425 16.7235C11.1972 15.5101 12.8599 15.4568 13.4199 16.5635L13.4892 16.7235L14.1159 18.3941L14.8679 16.3901Z" fill="#9E5E31"/>

</svg>
