<svg width="33" height="33" viewBox="0 0 33 33" fill="none" xmlns="http://www.w3.org/2000/svg">
<path d="M7.01336 26.4694C5.70136 24.7734 5.31256 24.2198 5.01336 23.6774L4.95096 23.5606C4.88441 23.4409 4.81934 23.3203 4.75576 23.199C4.67324 23.0428 4.59848 22.8826 4.53176 22.719C4.25336 22.0278 4.20056 21.4182 4.64376 20.855C5.41976 19.863 6.68056 20.143 7.74296 21.0518C8.42776 21.6358 9.44856 22.6838 10.071 23.4294C10.479 23.9174 11.223 24.423 11.767 24.6038C11.8193 24.6215 11.8728 24.6359 11.927 24.647L12.2118 23.751C11.1461 23.3823 10.139 22.8623 9.22136 22.207C7.14136 20.7094 5.33336 17.7702 5.48856 15.5286C5.58456 14.1126 6.06456 12.7238 6.91256 11.375C6.84145 10.717 6.80247 10.056 6.79576 9.3942C6.79576 8.6118 7.05176 7.7622 7.54296 6.8294C7.63049 6.66372 7.76046 6.52426 7.91958 6.4253C8.0787 6.32634 8.26125 6.27144 8.44856 6.2662C9.30928 6.23888 10.1697 6.33041 11.0054 6.5382C11.7334 6.7222 12.503 7.0454 13.3174 7.5062C14.5366 7.2534 15.7174 7.1254 16.863 7.1254C18.0102 7.1254 19.2038 7.2534 20.4454 7.5078C21.5046 6.9142 22.4358 6.511 23.2486 6.2998C24.3046 6.0262 25.255 6.1078 26.0374 6.591C26.1451 6.65775 26.24 6.74339 26.3174 6.8438C26.7974 7.4646 27.063 8.2886 27.1494 9.3046C27.2166 10.079 27.1926 10.8486 27.0774 11.6118C27.7702 12.6534 28.2214 13.9846 28.4438 15.5958C28.8054 18.2262 27.6038 20.935 25.695 22.495C24.8054 23.2214 23.583 23.791 22.0246 24.223C22.1238 24.5686 22.1942 24.9126 22.2358 25.2566C22.3062 25.823 22.3558 27.343 22.3894 29.8806C24.1526 28.9622 25.5206 28.0566 26.4934 27.1686C28.1494 25.6598 29.3974 23.519 30.2102 21.0326C30.8902 18.9526 31.0214 17.1974 30.6854 15.263C30.2742 12.911 29.6822 10.9926 28.791 9.4534C27.7478 7.6518 26.0838 5.9494 24.0934 4.7046C22.1894 3.511 19.1014 2.7126 16.6694 2.7126C14.1158 2.7126 11.2582 3.5398 9.09016 5.0694C6.98136 6.5574 5.23416 8.7974 4.22136 10.9942C3.41976 12.735 3.09016 14.5894 3.09016 17.327C3.09016 19.5446 3.89656 22.239 4.84696 23.9254C5.59736 25.2566 6.66296 26.5174 8.22936 27.887C9.01816 28.5782 10.1334 29.2678 11.5734 29.9494V29.2726C9.64536 28.8246 8.11256 27.8902 7.01336 26.4694ZM6.44216 21.7942C6.4422 21.7915 6.4422 21.7889 6.44216 21.7862V21.7942ZM8.69016 25.1894C9.60216 26.3718 10.9478 27.0966 12.7862 27.3654C13.0361 27.4019 13.2646 27.527 13.43 27.7179C13.5953 27.9088 13.6865 28.1528 13.687 28.4054V31.5622C13.686 31.7354 13.6425 31.9058 13.5602 32.0582C13.4779 32.2107 13.3593 32.3405 13.215 32.4363C13.0706 32.5321 12.9049 32.5909 12.7325 32.6076C12.5601 32.6242 12.3862 32.5982 12.2262 32.5318C9.86616 31.5622 8.07096 30.5478 6.83256 29.4646C5.09496 27.9446 3.87736 26.5014 3.00216 24.9526C1.88536 22.967 0.976562 19.9286 0.976562 17.3254C0.976562 14.3094 1.35736 12.1654 2.29976 10.1206C3.45816 7.6054 5.43416 5.0742 7.86776 3.3574C10.407 1.5654 13.6918 0.613403 16.6662 0.613403C19.4822 0.613403 22.959 1.5126 25.2182 2.927C27.4966 4.3542 29.4038 6.3046 30.6198 8.4054C31.6582 10.1958 32.3174 12.3302 32.7654 14.9046C33.1622 17.1782 33.0054 19.279 32.2198 21.6806C31.3014 24.4854 29.8726 26.9366 27.9222 28.7158C26.511 30.0022 24.4726 31.2614 21.799 32.5126C21.6391 32.5882 21.4628 32.6224 21.2862 32.6121C21.1097 32.6018 20.9385 32.5473 20.7885 32.4537C20.6385 32.3601 20.5144 32.2302 20.4276 32.0761C20.3408 31.9221 20.2941 31.7486 20.2918 31.5718C20.2598 28.1334 20.207 26.0774 20.1366 25.511C20.0629 24.9617 19.9025 24.4276 19.6614 23.9286C19.5943 23.7853 19.5605 23.6287 19.5626 23.4705C19.5647 23.3123 19.6026 23.1567 19.6734 23.0152C19.7442 22.8737 19.8461 22.7501 19.9715 22.6537C20.0969 22.5572 20.2425 22.4904 20.3974 22.4582C22.2278 22.0694 23.5462 21.5302 24.3494 20.8742C25.7174 19.7558 26.6054 17.7542 26.3478 15.8822C26.143 14.4006 25.7286 13.2806 25.1254 12.5094C25.0324 12.391 24.9661 12.254 24.9311 12.1076C24.896 11.9613 24.893 11.809 24.9222 11.6614C25.0662 10.9414 25.1062 10.2166 25.0422 9.4822C24.9974 8.9606 24.895 8.567 24.7494 8.295C24.5174 8.2182 24.2038 8.2214 23.7798 8.3318C23.0918 8.5094 22.2118 8.9078 21.1558 9.5238C20.9232 9.6602 20.6475 9.7031 20.3846 9.6438C19.2292 9.37489 18.0476 9.23484 16.8614 9.2262C15.7526 9.2262 14.5894 9.3638 13.375 9.6422C13.1061 9.70386 12.8238 9.65853 12.5878 9.5158C11.8038 9.0422 11.0998 8.7286 10.4854 8.575C10.0534 8.4662 9.60536 8.399 9.14616 8.3734C8.98456 8.775 8.90616 9.1158 8.90616 9.3942C8.90616 9.9414 8.95416 10.6518 9.05016 11.519C9.07725 11.7652 9.01601 12.013 8.87736 12.2182C8.09656 13.3766 7.67416 14.5238 7.59576 15.6726C7.49656 17.0886 8.91736 19.3958 10.4598 20.5062C11.4118 21.1926 12.527 21.7062 13.8086 22.0454C13.946 22.0813 14.0748 22.1448 14.187 22.232C14.2992 22.3192 14.3926 22.4282 14.4614 22.5525C14.5302 22.6769 14.573 22.8139 14.5873 22.9552C14.6016 23.0966 14.5871 23.2394 14.5446 23.375L13.7398 25.9142C13.6917 26.0655 13.61 26.204 13.5008 26.3192C13.3916 26.4345 13.2578 26.5236 13.1094 26.5798C12.4678 26.823 11.7814 26.823 11.0934 26.5958C10.1782 26.2918 9.10296 25.5606 8.44216 24.7702C8.2587 24.5522 8.06984 24.3388 7.87576 24.1302C8.09336 24.4182 8.35896 24.7638 8.68856 25.1894H8.69016Z" fill="black"/>
</svg>
