<svg width="33" height="33" viewBox="0 0 33 33" fill="none" xmlns="http://www.w3.org/2000/svg">
<path d="M11.6831 9.06255C11.6831 9.44229 11.5705 9.81351 11.3595 10.1292C11.1485 10.445 10.8487 10.6911 10.4978 10.8364C10.147 10.9817 9.76096 11.0197 9.38851 10.9457C9.01607 10.8716 8.67396 10.6887 8.40544 10.4202C8.13692 10.1517 7.95406 9.80957 7.87998 9.43713C7.80589 9.06468 7.84392 8.67864 7.98924 8.3278C8.13456 7.97697 8.38065 7.6771 8.69639 7.46613C9.01213 7.25516 9.38335 7.14255 9.76309 7.14255C10.2723 7.14255 10.7607 7.34484 11.1207 7.70491C11.4808 8.06498 11.6831 8.55334 11.6831 9.06255ZM32.1631 3.30255V30.1826C32.1631 30.8615 31.8934 31.5127 31.4133 31.9927C30.9332 32.4728 30.282 32.7426 29.6031 32.7426H2.72309C2.04413 32.7426 1.39299 32.4728 0.912892 31.9927C0.432799 31.5127 0.163086 30.8615 0.163086 30.1826V3.30255C0.163086 2.6236 0.432799 1.97245 0.912892 1.49236C1.39299 1.01227 2.04413 0.742554 2.72309 0.742554H29.6031C30.282 0.742554 30.9332 1.01227 31.4133 1.49236C31.8934 1.97245 32.1631 2.6236 32.1631 3.30255ZM29.6031 30.1826V3.30255H2.72309V30.1826H29.6031ZM9.76309 12.9026C9.42361 12.9026 9.09804 13.0374 8.85799 13.2775C8.61794 13.5175 8.48309 13.8431 8.48309 14.1826V24.4226C8.48309 24.762 8.61794 25.0876 8.85799 25.3277C9.09804 25.5677 9.42361 25.7026 9.76309 25.7026C10.1026 25.7026 10.4281 25.5677 10.6682 25.3277C10.9082 25.0876 11.0431 24.762 11.0431 24.4226V14.1826C11.0431 13.8431 10.9082 13.5175 10.6682 13.2775C10.4281 13.0374 10.1026 12.9026 9.76309 12.9026ZM19.3631 12.9026C18.2108 12.9025 17.0849 13.248 16.1311 13.8946C16.0611 13.5874 15.8803 13.3169 15.6233 13.1347C15.3663 12.9525 15.0512 12.8715 14.7382 12.9072C14.4252 12.9428 14.1364 13.0927 13.9269 13.328C13.7175 13.5633 13.6022 13.8675 13.6031 14.1826V24.4226C13.6031 24.762 13.7379 25.0876 13.978 25.3277C14.218 25.5677 14.5436 25.7026 14.8831 25.7026C15.2226 25.7026 15.5481 25.5677 15.7882 25.3277C16.0282 25.0876 16.1631 24.762 16.1631 24.4226V18.6626C16.1631 17.8139 16.5002 16.9999 17.1003 16.3998C17.7005 15.7997 18.5144 15.4626 19.3631 15.4626C20.2118 15.4626 21.0257 15.7997 21.6258 16.3998C22.2259 16.9999 22.5631 17.8139 22.5631 18.6626V24.4226C22.5631 24.762 22.6979 25.0876 22.938 25.3277C23.178 25.5677 23.5036 25.7026 23.8431 25.7026C24.1826 25.7026 24.5081 25.5677 24.7482 25.3277C24.9882 25.0876 25.1231 24.762 25.1231 24.4226V18.6626C25.1231 17.1349 24.5162 15.6698 23.436 14.5896C22.3558 13.5094 20.8907 12.9026 19.3631 12.9026Z" fill="black"/>
</svg>
