<svg width="191" height="59" viewBox="0 0 191 59" fill="none" xmlns="http://www.w3.org/2000/svg">
<path d="M5.20898 54.7812C4.1543 54.7812 3.24609 54.7129 2.48438 54.5762C1.72266 54.4395 1.08789 54.2637 0.580078 54.0488V51.2949C1.14648 51.5098 1.83008 51.6855 2.63086 51.8223C3.43164 51.959 4.27148 52.0273 5.15039 52.0273C6.73242 52.0273 8.03125 51.7148 9.04688 51.0898C10.0625 50.4648 10.8145 49.5371 11.3027 48.3066C11.791 47.0762 12.0352 45.5527 12.0352 43.7363V1.16797H15.0527V43.6777C15.0527 45.9434 14.6914 47.9062 13.9688 49.5664C13.2656 51.2461 12.1914 52.5352 10.7461 53.4336C9.30078 54.332 7.45508 54.7812 5.20898 54.7812ZM58.9688 11.5391C62.0352 11.5391 64.457 12.4277 66.2344 14.2051C68.0117 15.9824 68.9004 18.7852 68.9004 22.6133V44H66V22.7305C66 19.7812 65.3262 17.6133 63.9785 16.2266C62.6309 14.8398 60.8535 14.1465 58.6465 14.1465C55.6191 14.1465 53.2461 15.0352 51.5273 16.8125C49.8281 18.5703 48.9785 21.3438 48.9785 25.1328V44H46.0488V22.7305C46.0488 20.7578 45.7363 19.1465 45.1113 17.8965C44.5059 16.627 43.6562 15.6895 42.5625 15.084C41.4688 14.459 40.1797 14.1465 38.6953 14.1465C36.7227 14.1465 35.0137 14.5566 33.5684 15.377C32.123 16.1777 31.0098 17.4277 30.2285 19.127C29.4473 20.8066 29.0566 22.9453 29.0566 25.543V44H26.0977V12.1543H28.5L28.9395 17.3691H29.1152C29.6426 16.334 30.3457 15.377 31.2246 14.498C32.1035 13.6191 33.1875 12.9063 34.4766 12.3594C35.7852 11.8125 37.3184 11.5391 39.0762 11.5391C41.3613 11.5391 43.2949 12.0566 44.877 13.0918C46.4785 14.1074 47.5918 15.6211 48.2168 17.6328H48.4219C49.2812 15.7187 50.6094 14.2246 52.4062 13.1504C54.2227 12.0762 56.4102 11.5391 58.9688 11.5391ZM87.5625 58.4141C83.5586 58.4141 80.4434 57.6426 78.2168 56.0996C76.0098 54.5566 74.9062 52.3984 74.9062 49.625C74.9062 47.4766 75.5801 45.6211 76.9277 44.0586C78.2754 42.5156 80.1016 41.5879 82.4062 41.2754C81.4883 40.8457 80.7363 40.2598 80.1504 39.5176C79.584 38.7754 79.3008 37.916 79.3008 36.9395C79.3008 35.8457 79.6426 34.8301 80.3262 33.8926C81.0098 32.9355 82.0352 32.0566 83.4023 31.2559C81.5664 30.5918 80.1211 29.4688 79.0664 27.8867C78.0117 26.2852 77.4844 24.3613 77.4844 22.1152C77.4844 19.9668 77.9434 18.1016 78.8613 16.5195C79.7793 14.9375 81.0781 13.7168 82.7578 12.8574C84.457 11.9785 86.459 11.5391 88.7637 11.5391C89.4668 11.5391 90.1016 11.5586 90.668 11.5977C91.2539 11.6367 91.791 11.7051 92.2793 11.8027C92.7676 11.8809 93.207 11.9883 93.5977 12.125H103.881V14.2344L97.3184 14.6738C98.1777 15.709 98.8223 16.832 99.252 18.043C99.6816 19.2344 99.8965 20.4941 99.8965 21.8223C99.8965 24.9863 98.9004 27.4961 96.9082 29.3516C94.916 31.207 92.1426 32.1348 88.5879 32.1348C87.6113 32.1348 86.6543 32.0469 85.7168 31.8711C84.5254 32.5742 83.6172 33.2871 82.9922 34.0098C82.3672 34.7129 82.0547 35.5918 82.0547 36.6465C82.0547 37.3105 82.25 37.8574 82.6406 38.2871C83.0312 38.6973 83.5977 39.0195 84.3398 39.2539C85.082 39.4688 85.9902 39.5762 87.0645 39.5762H92.6602C96.1172 39.5762 98.7637 40.2793 100.6 41.6855C102.436 43.0918 103.354 45.1621 103.354 47.8965C103.354 51.2363 101.977 53.8242 99.2227 55.6602C96.4883 57.4961 92.6016 58.4141 87.5625 58.4141ZM87.7676 55.9238C90.5605 55.9238 92.8848 55.6211 94.7402 55.0156C96.6152 54.4102 98.0215 53.5117 98.959 52.3203C99.8965 51.1484 100.365 49.6934 100.365 47.9551C100.365 46.5293 100.023 45.4258 99.3398 44.6445C98.6562 43.8633 97.6895 43.3262 96.4395 43.0332C95.1895 42.7207 93.7148 42.5645 92.0156 42.5645H86.6836C84.9844 42.5645 83.4707 42.7988 82.1426 43.2676C80.8145 43.7168 79.7793 44.4395 79.0371 45.4355C78.3145 46.4316 77.9531 47.7598 77.9531 49.4199C77.9531 51.5488 78.7832 53.1602 80.4434 54.2539C82.123 55.3672 84.5645 55.9238 87.7676 55.9238ZM88.7051 29.7617C91.3418 29.7617 93.3633 29.0977 94.7695 27.7695C96.1758 26.4414 96.8789 24.5176 96.8789 21.998C96.8789 19.3027 96.1562 17.2812 94.7109 15.9336C93.2656 14.5859 91.2441 13.9121 88.6465 13.9121C86.127 13.9121 84.1445 14.6348 82.6992 16.0801C81.2734 17.5059 80.5605 19.5176 80.5605 22.1152C80.5605 24.5371 81.2441 26.4219 82.6113 27.7695C83.9785 29.0977 86.0098 29.7617 88.7051 29.7617Z" fill="url(#paint0_linear_107_1527)"/>
<path d="M123.506 33.2115C122.637 33.2115 121.866 33.3824 121.192 33.7242C120.528 34.0563 119.966 34.5397 119.507 35.1744C119.058 35.8092 118.716 36.5758 118.482 37.4742C118.248 38.3727 118.13 39.3834 118.13 40.5065C118.13 42.0201 118.316 43.3141 118.687 44.3883C119.068 45.4528 119.654 46.2682 120.445 46.8346C121.236 47.3912 122.256 47.6696 123.506 47.6696C124.375 47.6696 125.245 47.5719 126.114 47.3766C126.993 47.1813 127.945 46.903 128.97 46.5416V50.3502C128.023 50.7408 127.09 51.0192 126.172 51.1852C125.254 51.361 124.224 51.4489 123.082 51.4489C120.875 51.4489 119.058 50.9948 117.632 50.0865C116.216 49.1686 115.167 47.8893 114.483 46.2487C113.799 44.5983 113.458 42.6744 113.458 40.4772C113.458 38.8561 113.677 37.3717 114.117 36.024C114.556 34.6764 115.201 33.5094 116.05 32.5231C116.9 31.5367 117.95 30.775 119.2 30.2379C120.45 29.7008 121.885 29.4323 123.506 29.4323C124.571 29.4323 125.635 29.569 126.7 29.8424C127.774 30.1061 128.799 30.4723 129.776 30.941L128.311 34.6324C127.51 34.2516 126.705 33.9196 125.894 33.6364C125.083 33.3531 124.288 33.2115 123.506 33.2115ZM148.072 42.9381C148.072 44.3053 147.886 45.5162 147.515 46.5709C147.154 47.6256 146.622 48.5192 145.918 49.2516C145.225 49.9742 144.385 50.5211 143.399 50.8922C142.422 51.2633 141.319 51.4489 140.088 51.4489C138.936 51.4489 137.876 51.2633 136.91 50.8922C135.953 50.5211 135.118 49.9742 134.405 49.2516C133.702 48.5192 133.155 47.6256 132.764 46.5709C132.383 45.5162 132.193 44.3053 132.193 42.9381C132.193 41.1217 132.515 39.5836 133.16 38.3239C133.804 37.0641 134.722 36.1071 135.914 35.4528C137.105 34.7985 138.526 34.4713 140.176 34.4713C141.709 34.4713 143.067 34.7985 144.249 35.4528C145.44 36.1071 146.373 37.0641 147.046 38.3239C147.73 39.5836 148.072 41.1217 148.072 42.9381ZM136.749 42.9381C136.749 44.0123 136.866 44.9156 137.1 45.6481C137.334 46.3805 137.701 46.9323 138.199 47.3033C138.697 47.6744 139.346 47.86 140.147 47.86C140.938 47.86 141.578 47.6744 142.066 47.3033C142.564 46.9323 142.925 46.3805 143.15 45.6481C143.384 44.9156 143.501 44.0123 143.501 42.9381C143.501 41.8541 143.384 40.9557 143.15 40.2428C142.925 39.5201 142.564 38.9781 142.066 38.6168C141.568 38.2555 140.918 38.0748 140.118 38.0748C138.936 38.0748 138.077 38.4801 137.54 39.2906C137.012 40.1012 136.749 41.317 136.749 42.9381ZM156.949 51.4489C155.123 51.4489 153.633 50.736 152.481 49.3102C151.338 47.8746 150.767 45.7701 150.767 42.9967C150.767 40.194 151.348 38.0748 152.51 36.6393C153.672 35.194 155.191 34.4713 157.066 34.4713C157.847 34.4713 158.536 34.5787 159.131 34.7936C159.727 35.0084 160.24 35.2965 160.669 35.6578C161.109 36.0192 161.48 36.4244 161.783 36.8737H161.929C161.871 36.5612 161.797 36.1022 161.709 35.4967C161.631 34.8815 161.592 34.2516 161.592 33.6071V28.3629H166.075V51.1559H162.647L161.783 49.0319H161.592C161.309 49.4811 160.953 49.8912 160.523 50.2623C160.103 50.6237 159.6 50.9117 159.014 51.1266C158.428 51.3414 157.74 51.4489 156.949 51.4489ZM158.516 47.8893C159.737 47.8893 160.596 47.528 161.094 46.8053C161.602 46.0729 161.871 44.9742 161.9 43.5094V43.026C161.9 41.4342 161.656 40.2184 161.167 39.3785C160.679 38.5289 159.771 38.1041 158.443 38.1041C157.457 38.1041 156.685 38.5289 156.128 39.3785C155.572 40.2281 155.293 41.4537 155.293 43.0553C155.293 44.6569 155.572 45.8629 156.128 46.6735C156.695 47.484 157.491 47.8893 158.516 47.8893ZM177.5 34.4713C179.014 34.4713 180.318 34.7643 181.412 35.3502C182.505 35.9264 183.35 36.7662 183.946 37.8698C184.542 38.9733 184.839 40.3209 184.839 41.9127V44.0807H174.278C174.327 45.3405 174.703 46.3317 175.406 47.0543C176.119 47.7672 177.105 48.1237 178.365 48.1237C179.41 48.1237 180.367 48.0162 181.236 47.8014C182.105 47.5865 182.999 47.2643 183.917 46.8346V50.2916C183.106 50.692 182.256 50.985 181.368 51.1705C180.489 51.3561 179.419 51.4489 178.16 51.4489C176.519 51.4489 175.064 51.1461 173.794 50.5406C172.535 49.9352 171.543 49.0123 170.821 47.7721C170.108 46.5319 169.751 44.9694 169.751 43.0846C169.751 41.1705 170.074 39.5787 170.718 38.3092C171.373 37.0299 172.281 36.0729 173.443 35.4381C174.605 34.7936 175.958 34.4713 177.5 34.4713ZM177.53 37.65C176.661 37.65 175.938 37.9283 175.362 38.485C174.795 39.0416 174.468 39.9156 174.38 41.1071H180.65C180.64 40.443 180.518 39.8522 180.284 39.3346C180.059 38.817 179.717 38.4069 179.258 38.1041C178.809 37.8014 178.233 37.65 177.53 37.65Z" fill="url(#paint1_linear_107_1527)"/>
<path d="M123.084 21.9185L112.902 17.4272V15.9609L123.084 10.875V13.3359L116.071 16.5864L123.084 19.4678V21.9185ZM132.59 9.00879L127.001 24H124.161L129.75 9.00879H132.59ZM133.595 19.4678L140.608 16.5864L133.595 13.3359V10.875L143.777 15.9609V17.4272L133.595 21.9185V19.4678Z" fill="#261F22"/>
<defs>
<linearGradient id="paint0_linear_107_1527" x1="6" y1="29.5" x2="111.714" y2="29.5" gradientUnits="userSpaceOnUse">
<stop stop-color="#FE572E"/>
<stop offset="1" stop-color="#FC3A79"/>
</linearGradient>
<linearGradient id="paint1_linear_107_1527" x1="111.714" y1="39.6559" x2="191" y2="39.6559" gradientUnits="userSpaceOnUse">
<stop stop-color="#FE572E"/>
<stop offset="1" stop-color="#FC3A79"/>
</linearGradient>
</defs>
</svg>
