<svg width="24" height="33" viewBox="0 0 24 33" fill="none" xmlns="http://www.w3.org/2000/svg">
<path d="M13.9921 19.8449C13.1722 19.3305 12.5552 18.5486 12.2454 17.6316C12.5325 16.7738 12.6191 15.8615 12.4987 14.9649C12.4603 14.7391 12.3501 14.5316 12.1846 14.3732C12.019 14.2148 11.8068 14.1139 11.5795 14.0855C11.3521 14.0571 11.1217 14.1026 10.9222 14.2154C10.7228 14.3282 10.5649 14.5022 10.4721 14.7116C10.3203 15.7895 10.4347 16.8882 10.8054 17.9116C10.299 19.0946 9.73383 20.2516 9.11205 21.3783C8.16539 21.9116 6.87205 22.7116 6.67205 23.6316C6.51205 24.3783 7.91205 26.2983 10.2987 22.1383C11.36 21.7443 12.447 21.4236 13.5521 21.1783C14.369 21.6453 15.2802 21.9233 16.2187 21.9916C16.4342 21.9972 16.6466 21.939 16.829 21.8242C17.0115 21.7095 17.156 21.5433 17.2444 21.3467C17.3327 21.1501 17.361 20.9317 17.3256 20.7191C17.2901 20.5064 17.1927 20.309 17.0454 20.1516C16.4854 19.5783 14.8187 19.7383 13.9921 19.8449V19.8449ZM7.61872 23.8449C7.99237 23.2055 8.48583 22.6442 9.07205 22.1916C8.16539 23.6316 7.61872 23.8849 7.61872 23.8583V23.8449ZM11.5121 14.7649C11.8587 14.7649 11.8321 16.2983 11.5921 16.7116C11.4113 16.0828 11.3838 15.4199 11.5121 14.7783V14.7649ZM10.3521 21.2716C10.8038 20.4474 11.1959 19.5919 11.5254 18.7116C11.8786 19.3689 12.3698 19.942 12.9654 20.3916C12.0708 20.6157 11.1966 20.9145 10.3521 21.2849V21.2716ZM16.6187 21.0316C16.6187 21.0316 16.3787 21.3249 14.8454 20.6583C16.5121 20.5516 16.7921 20.9383 16.6187 21.0449V21.0316Z" fill="#9E5E31"/>
<path fill-rule="evenodd" clip-rule="evenodd" d="M21 12.7607V29.7607H3V3.76074H12V9.26074C12 11.1927 13.568 12.7607 15.5 12.7607H21ZM20.758 9.76074L15 4.00274V9.26074C15 9.53674 15.224 9.76074 15.5 9.76074H20.758ZM0 2.76074C0 2.23031 0.210714 1.7216 0.585786 1.34653C0.960859 0.971456 1.46957 0.760742 2 0.760742L15.172 0.760742C15.7024 0.760855 16.211 0.971643 16.586 1.34674L23.414 8.17474C23.7891 8.54973 23.9999 9.05835 24 9.58874V30.7607C24 31.2912 23.7893 31.7999 23.4142 32.175C23.0391 32.55 22.5304 32.7607 22 32.7607H2C1.46957 32.7607 0.960859 32.55 0.585786 32.175C0.210714 31.7999 0 31.2912 0 30.7607V2.76074Z" fill="#9E5E31"/>

</svg>
