<svg width="32" height="22" viewBox="0 0 32 22" fill="none" xmlns="http://www.w3.org/2000/svg">
<path d="M25.8 8.38671C25.3521 6.117 24.1301 4.07319 22.3428 2.60437C20.5554 1.13555 18.3135 0.332851 16 0.333374C12.1467 0.333374 8.8 2.52004 7.13333 5.72004C5.17365 5.93182 3.36134 6.86032 2.04465 8.32714C0.727961 9.79395 -0.000228936 11.6956 5.39903e-08 13.6667C5.39903e-08 18.08 3.58667 21.6667 8 21.6667H25.3333C29.0133 21.6667 32 18.68 32 15C32 11.48 29.2667 8.62671 25.8 8.38671ZM25.3333 19H8C5.05333 19 2.66667 16.6134 2.66667 13.6667C2.66667 10.9334 4.70667 8.65337 7.41333 8.37337L8.84 8.22671L9.50667 6.96004C10.1198 5.76641 11.0505 4.76513 12.1962 4.06643C13.3418 3.36774 14.6581 2.99873 16 3.00004C19.4933 3.00004 22.5067 5.48004 23.1867 8.90671L23.5867 10.9067L25.6267 11.0534C26.629 11.1208 27.5686 11.5654 28.2563 12.2976C28.944 13.0299 29.3289 13.9955 29.3333 15C29.3333 17.2 27.5333 19 25.3333 19ZM10.6667 12.3334H14.0667V16.3334H17.9333V12.3334H21.3333L16 7.00004L10.6667 12.3334Z" fill="#9E5E31"/>
</svg>
